<svg xmlns="http://www.w3.org/2000/svg" xmlns:svgjs="http://svgjs.com/svgjs" xmlns:xlink="http://www.w3.org/1999/xlink" width="288" height="288"><svg xmlns="http://www.w3.org/2000/svg" width="288" height="288" enable-background="new 0 0 36 36" viewBox="0 0 36 36"><path fill="#9a8aff" d="m11.532 34.802c6.645-1.919 12.203.206 15.405-.719s9.396-4.708 5.142-19.44-13.924-14.28-17.447-13.263c-16.493 4.763-14.869 36.821-3.1 33.422z" class="colorefefef svgShape"/><path fill="#0050a7" d="M21.672 3.562h2v1h-2zM15.922 3.562h2v1h-2zM19.422.062h1v2h-1zM5 12.852c-.827 0-1.5-.673-1.5-1.5s.673-1.5 1.5-1.5 1.5.673 1.5 1.5-.673 1.5-1.5 1.5zm0-2c-.275 0-.5.224-.5.5s.225.5.5.5.5-.224.5-.5-.225-.5-.5-.5z" class="colora4afc1 svgShape"/><path fill="#f3f3f1" d="m29.158 18.721-.001-.001c-.312-.955-1.351-1.462-2.31-1.15l-2.28.759-1.522-4.521 2.28-.759c.959-.312 1.461-1.346 1.155-2.306-.312-.955-1.351-1.462-2.31-1.15l-2.28.759-.789-2.361c-.312-.955-1.351-1.462-2.31-1.15s-1.461 1.346-1.155 2.306l.789 2.361-4.691 1.567-.789-2.361c-.312-.955-1.351-1.462-2.31-1.15s-1.461 1.346-1.155 2.306l.789 2.361-2.275.753c-.958.312-1.461 1.346-1.154 2.306.251.729.959 1.206 1.688 1.235.342.05.603-.08 2.898-.843l1.521 4.521-2.28.759c-.955.312-1.461 1.351-1.155 2.306.251.729.959 1.206 1.688 1.236.342.05.603-.08 2.898-.844l.789 2.361c.297.849 1.241 1.456 2.31 1.15.959-.312 1.461-1.346 1.155-2.306l-.789-2.361 4.701-1.572.789 2.361c.297.849 1.241 1.456 2.31 1.15.959-.312 1.461-1.346 1.155-2.306l-.789-2.361 2.28-.759c.954-.302 1.461-1.343 1.149-2.296zm-12.763 2.37-1.521-4.53 4.696-1.572 1.521 4.531z" class="colorf3f3f1 svgShape"/><path fill="#ff338f" d="m15.506 15.65h4.952v4.779h-4.952z" class="color2fdf84 svgShape" transform="rotate(-18.565 17.98 18.038)"/><path fill="#d5dbe1" d="M18.425 11.508l-2.667.891.226.676 4.691-1.567-.789-2.361c-.241-.755.024-1.551.612-2.01-.466-.362-1.102-.493-1.707-.296-.959.312-1.461 1.346-1.155 2.306zM25.302 25.292l-.789-2.361-2.024.677.562 1.684c.297.849 1.241 1.456 2.31 1.15.211-.069.395-.177.558-.307-.283-.218-.501-.511-.617-.843zM28.438 17.789c-.453-.299-1.033-.401-1.591-.219l-.257.085.227.673zM21.82 14.989l-2.023.677 1.294 3.853-2.673.895.227.677 4.696-1.572zM24.14 10.352l1.621-.539c-.453-.299-1.033-.401-1.591-.219l-.255.085zM17.136 28.02l-.789-2.361c-1.017.339-1.622.548-2.024.677l.562 1.684c.297.849 1.241 1.456 2.31 1.15.211-.069.395-.177.558-.307-.282-.218-.5-.511-.617-.843zM11.762 25.268c-.306-.955.2-1.994 1.155-2.306l2.28-.759-1.521-4.521c-1.016.338-1.62.546-2.023.676l1.294 3.845-2.28.759c-.955.312-1.461 1.351-1.155 2.306.251.729.959 1.206 1.688 1.236.237.035.451-.023 1.312-.312-.337-.216-.614-.528-.75-.924zM9.09 17.29c-.306-.96.196-1.994 1.155-2.306l2.275-.753-.789-2.361c-.241-.755.024-1.551.612-2.01-.466-.362-1.102-.492-1.707-.296-.959.312-1.461 1.346-1.155 2.306l.789 2.361-2.275.753c-.959.312-1.462 1.346-1.155 2.306.251.729.959 1.206 1.688 1.235.237.035.451-.023 1.312-.311-.337-.216-.614-.527-.75-.924z" class="colord5dbe1 svgShape"/><path fill="#da005a" d="m17.123 16.561 2.674-.895-.227-.677-4.697 1.572 1.522 4.53 2.023-.677z" class="color00b871 svgShape"/><path d="m16.634 29.996c-1.103 0-2.081-.661-2.455-1.729l-.555-1.658-.456.153c-1.347.454-1.628.55-2.078.483-.993-.037-1.943-.736-2.287-1.733-.44-1.369.294-2.826 1.632-3.263l1.562-.52-1.042-3.098-.461.154c-1.345.453-1.624.549-2.075.482-.995-.038-1.945-.737-2.287-1.734-.002-.005-.004-.01-.006-.016-.433-1.356.302-2.812 1.638-3.248l1.557-.516-.55-1.647c-.436-1.366.299-2.823 1.634-3.257 1.358-.44 2.817.291 3.256 1.63l.549 1.645 3.269-1.091-.551-1.649c-.437-1.366.298-2.822 1.634-3.257 1.359-.439 2.818.29 3.255 1.631l.55 1.645 1.57-.522c1.362-.442 2.821.288 3.259 1.628.435 1.361-.3 2.817-1.636 3.252l-1.561.52 1.043 3.099 1.569-.522c1.365-.444 2.823.288 3.261 1.628.218.664.162 1.371-.156 1.991-.311.605-.836 1.05-1.479 1.253l-1.557.518.55 1.648c.437 1.365-.298 2.822-1.633 3.257-1.401.4-2.789-.295-3.251-1.616l-.556-1.657-3.278 1.096.551 1.649c.437 1.366-.298 2.822-1.634 3.257-.268.077-.535.114-.795.114zm-2.536-5.087c.313 0 .606.198.711.512l.789 2.36c.163.465.712.86 1.392.667.528-.173.831-.785.647-1.357l-.785-2.351c-.132-.393.08-.818.473-.949l4.701-1.572c.191-.062.395-.048.573.041s.313.245.376.434l.788 2.36c.163.464.708.862 1.394.666.527-.172.829-.784.646-1.357l-.784-2.351c-.063-.188-.049-.395.04-.573s.245-.313.435-.376l2.28-.759c.269-.085.48-.266.607-.512.134-.261.157-.559.065-.839-.183-.556-.793-.855-1.367-.67l-2.273.757c-.395.134-.816-.081-.948-.472l-1.521-4.521c-.063-.189-.049-.396.04-.574.089-.179.245-.314.434-.377l2.279-.759c.559-.182.861-.794.678-1.367-.18-.55-.796-.853-1.362-.664l-2.276.757c-.39.131-.816-.082-.947-.474l-.789-2.36c-.184-.561-.798-.863-1.366-.674-.554.18-.856.792-.673 1.365l.785 2.351c.063.188.049.395-.04.573s-.245.313-.434.376l-4.691 1.566c-.188.063-.395.05-.572-.041-.178-.089-.313-.245-.376-.434l-.788-2.36c-.183-.559-.794-.858-1.368-.674-.553.18-.854.792-.672 1.365l.785 2.35c.063.189.049.396-.04.574-.09.178-.246.313-.435.376l-2.279.754c-.555.181-.856.788-.679 1.358.144.407.557.703 1.007.722.182.025.627-.132 1.455-.412l1.176-.394c.394-.129.816.082.947.473l1.521 4.521c.063.189.049.396-.04.574-.089.179-.245.314-.435.377l-2.28.758c-.559.182-.861.794-.678 1.365.137.396.552.697 1.004.715.191.021.658-.143 1.459-.413l1.173-.394c.079-.025.16-.037.238-.037zm2.297-3.068c-.313 0-.605-.198-.711-.511l-1.521-4.531c-.063-.188-.049-.395.039-.573.089-.178.245-.313.434-.377l4.696-1.572c.395-.131.817.081.949.473l1.521 4.53c.063.188.049.395-.039.573-.089.178-.245.314-.434.377l-4.696 1.572c-.079.027-.159.039-.238.039zm-.572-4.807 1.044 3.108 3.273-1.096-1.044-3.108z" class="color000 svgShape"/></svg></svg>